<?xml version="1.0" encoding="UTF-8" standalone="no"?>
<svg
   width="196mm"
   height="196mm"
   viewBox="0 0 196 196"
   version="1.1"
   id="svg8"
   inkscape:version="1.1.1 (3bf5ae0d25, 2021-09-20)"
   sodipodi:docname="logo-go-takenoco.svg"
   xmlns:inkscape="http://www.inkscape.org/namespaces/inkscape"
   xmlns:sodipodi="http://sodipodi.sourceforge.net/DTD/sodipodi-0.dtd"
   xmlns="http://www.w3.org/2000/svg"
   xmlns:svg="http://www.w3.org/2000/svg"
   xmlns:rdf="http://www.w3.org/1999/02/22-rdf-syntax-ns#"
   xmlns:cc="http://creativecommons.org/ns#"
   xmlns:dc="http://purl.org/dc/elements/1.1/">
  <defs
     id="defs2" />
  <sodipodi:namedview
     id="base"
     pagecolor="#ffffff"
     bordercolor="#666666"
     borderopacity="1.0"
     inkscape:pageopacity="0.0"
     inkscape:pageshadow="2"
     inkscape:zoom="1"
     inkscape:cx="-155.5"
     inkscape:cy="526"
     inkscape:document-units="mm"
     inkscape:current-layer="g906"
     inkscape:document-rotation="0"
     showgrid="false"
     inkscape:window-width="3840"
     inkscape:window-height="2036"
     inkscape:window-x="-12"
     inkscape:window-y="-12"
     inkscape:window-maximized="1"
     inkscape:pagecheckerboard="0"
     fit-margin-top="0.1"
     fit-margin-left="0.1"
     fit-margin-right="0.1"
     fit-margin-bottom="0.1" />
  <metadata
     id="metadata5">
    <rdf:RDF>
      <cc:Work
         rdf:about="">
        <dc:format>image/svg+xml</dc:format>
        <dc:type
           rdf:resource="http://purl.org/dc/dcmitype/StillImage" />
      </cc:Work>
    </rdf:RDF>
  </metadata>
  <g
     inkscape:label="Layer 1"
     inkscape:groupmode="layer"
     id="layer1"
     transform="translate(-9.0125024,-5.497704)">
    <g
       id="g906">
      <g
         id="g4598"
         transform="translate(4.7625,-14.287499)" />
      <g
         id="g1000">
        <g
           id="g921">
          <g
             id="g2258"
             transform="matrix(0.39772727,0,0,0.39772727,166.12037,30.991581)">
            <path
               id="path968-9"
               style="fill:#0df36e;fill-opacity:1;stroke:#0df36e;stroke-width:1.00437;stroke-linecap:square;stroke-opacity:1"
               inkscape:transform-center-x="3.7697337e-06"
               inkscape:transform-center-y="-63.508528"
               d="m -153.475,322.52564 h 220 l -220,-381.051196 z" />
            <path
               id="path968-9-9"
               style="fill:#ffffff;fill-opacity:1;stroke-width:0.821757;stroke-linecap:square"
               inkscape:transform-center-x="3.3810784e-06"
               inkscape:transform-center-y="-51.961529"
               d="m -153.475,313.24361 h 180 l -180,-311.769166 z" />
            <path
               id="path968-9-3"
               style="fill:#0df36e;fill-opacity:1;stroke-width:0.639145;stroke-linecap:square"
               inkscape:transform-center-x="2.3844139e-06"
               inkscape:transform-center-y="-40.414521"
               d="m -153.475,303.96158 h 140 l -140,-242.487136 z" />
            <path
               id="path968-9-9-3"
               style="fill:#ffffff;fill-opacity:1;stroke-width:0.456532;stroke-linecap:square"
               inkscape:transform-center-x="1.7476001e-06"
               inkscape:transform-center-y="-28.867518"
               d="m -153.475,294.67953 h 100 l -100,-173.20509 z" />
            <path
               id="path968-9-2"
               style="fill:#0df36e;fill-opacity:1;stroke-width:0.273919;stroke-linecap:square"
               inkscape:transform-center-y="-17.320505"
               d="m -153.475,285.39751 h 59.999997 L -153.475,181.47444 Z" />
          </g>
          <path
             id="path968-9-8"
             style="fill:#0df36e;fill-opacity:1;stroke:#0df36e;stroke-width:0.399465;stroke-linecap:square;stroke-opacity:1"
             inkscape:transform-center-x="-3.7697337e-06"
             inkscape:transform-center-y="-63.508528"
             d="M 105.07917,159.26883 H 17.579178 L 105.07917,7.7143714 Z" />
        </g>
        <g
           id="g956">
          <g
             aria-label="takenoco"
             transform="matrix(1.0950932,0,0,0.91316426,4.7625001,-14.287499)"
             id="text958"
             style="font-size:33.9965px;line-height:1.25;font-family:'Courier New';-inkscape-font-specification:'Courier New';letter-spacing:0px;word-spacing:0px;fill:#0df36e;fill-opacity:1;stroke-width:0.289743">
            <path
               d="m 30.868136,194.41787 v 4.34916 h 3.353171 v 2.37378 h -3.353171 v 11.1385 q 0,1.07899 0.448196,1.62679 0.448196,0.53119 1.527187,0.53119 0.531195,0 1.460787,-0.19919 v 2.48997 q -1.211789,0.332 -2.357179,0.332 -2.058382,0 -3.104173,-1.24499 -1.04579,-1.24499 -1.04579,-3.53577 v -11.1385 h -3.270171 v -2.37378 h 3.270171 v -4.34916 z"
               style="font-family:Roboto;-inkscape-font-specification:Roboto;fill:#0df36e;fill-opacity:1"
               id="path834" />
            <path
               d="m 48.895577,216.72807 q -0.265598,-0.53119 -0.431596,-1.89238 -2.141381,2.22438 -5.112755,2.22438 -2.655976,0 -4.365761,-1.49399 -1.693185,-1.51058 -1.693185,-3.81796 0,-2.80538 2.124781,-4.34916 2.141381,-1.56039 6.009147,-1.56039 h 2.987973 v -1.41099 q 0,-1.61018 -0.962791,-2.55637 -0.962792,-0.9628 -2.838575,-0.9628 -1.643386,0 -2.755576,0.83 -1.11219,0.82999 -1.11219,2.00858 h -3.087572 q 0,-1.34459 0.946191,-2.58958 0.962792,-1.26159 2.589577,-1.99198 1.643386,-0.73039 3.602168,-0.73039 3.104173,0 4.863757,1.56038 1.759584,1.54379 1.825984,4.26616 v 8.26673 q 0,2.47338 0.630794,3.93417 v 0.26559 z m -5.096155,-2.34058 q 1.444187,0 2.738976,-0.74699 1.294788,-0.74699 1.875783,-1.94218 v -3.68517 h -2.406979 q -5.643949,0 -5.643949,3.30337 0,1.44419 0.962791,2.25758 0.962791,0.81339 2.473378,0.81339 z"
               style="font-family:Roboto;-inkscape-font-specification:Roboto;fill:#0df36e;fill-opacity:1"
               id="path836" />
            <path
               d="m 61.312267,208.41155 -1.925583,2.00858 v 6.30794 H 56.315711 V 191.2307 h 3.070973 v 15.42126 l 1.643385,-1.97538 5.594151,-5.90955 h 3.734966 l -6.988537,7.50314 7.80193,10.4579 h -3.602168 z"
               style="font-family:Roboto;-inkscape-font-specification:Roboto;fill:#0df36e;fill-opacity:1"
               id="path838" />
            <path
               d="m 80.651092,217.06007 q -3.651967,0 -5.942747,-2.39038 -2.290779,-2.40698 -2.290779,-6.42414 v -0.5644 q 0,-2.67257 1.012591,-4.76415 1.02919,-2.10819 2.855174,-3.28678 1.842584,-1.19518 3.983965,-1.19518 3.502569,0 5.444752,2.30738 1.942182,2.30737 1.942182,6.60674 v 1.27819 H 75.488538 q 0.0664,2.65597 1.543787,4.29936 1.493986,1.62678 3.784766,1.62678 1.626786,0 2.755576,-0.66399 1.12879,-0.664 1.975382,-1.75959 l 1.875783,1.46079 q -2.25758,3.46937 -6.77274,3.46937 z m -0.381796,-16.10186 q -1.859184,0 -3.120772,1.36119 -1.261589,1.34459 -1.560387,3.78477 h 8.997121 v -0.2324 q -0.132799,-2.34058 -1.261589,-3.61877 -1.12879,-1.29479 -3.054373,-1.29479 z"
               style="font-family:Roboto;-inkscape-font-specification:Roboto;fill:#0df36e;fill-opacity:1"
               id="path840" />
            <path
               d="m 94.113574,198.76703 0.0996,2.25758 q 2.058382,-2.58957 5.378353,-2.58957 5.693753,0 5.743543,6.42414 v 11.86889 h -3.07097 v -11.88549 q -0.0166,-1.94218 -0.89639,-2.87178 -0.86319,-0.92959 -2.705775,-0.92959 -1.493987,0 -2.622777,0.7968 -1.12879,0.79679 -1.759584,2.09158 v 12.79848 H 91.2086 v -17.96104 z"
               style="font-family:Roboto;-inkscape-font-specification:Roboto;fill:#0df36e;fill-opacity:1"
               id="path842" />
            <path
               d="m 109.15304,207.58155 q 0,-2.63937 1.02919,-4.74755 1.04579,-2.10818 2.88838,-3.25357 1.85918,-1.14539 4.23296,-1.14539 3.66857,0 5.92615,2.53977 2.27418,2.53978 2.27418,6.75614 v 0.2158 q 0,2.62278 -1.01259,4.71436 -0.99599,2.07498 -2.87178,3.23697 -1.85918,1.16199 -4.28276,1.16199 -3.65197,0 -5.92615,-2.53978 -2.25758,-2.53977 -2.25758,-6.72294 z m 3.08758,0.3652 q 0,2.98797 1.37778,4.79736 1.39439,1.80938 3.71837,1.80938 2.34058,0 3.71837,-1.82598 1.37778,-1.84258 1.37778,-5.14596 0,-2.95477 -1.41098,-4.78075 -1.39439,-1.84259 -3.71837,-1.84259 -2.27418,0 -3.66857,1.80939 -1.39438,1.80938 -1.39438,5.17915 z"
               style="font-family:Roboto;-inkscape-font-specification:Roboto;fill:#0df36e;fill-opacity:1"
               id="path844" />
            <path
               d="m 136.5594,214.55349 q 1.64338,0 2.87177,-0.99599 1.22839,-0.99599 1.36119,-2.48998 h 2.90497 q -0.083,1.54379 -1.06239,2.93818 -0.97939,1.39438 -2.62277,2.22438 -1.62679,0.82999 -3.45277,0.82999 -3.66857,0 -5.84315,-2.44018 -2.15798,-2.45678 -2.15798,-6.70634 v -0.51459 q 0,-2.62278 0.96279,-4.66456 0.96279,-2.04178 2.75558,-3.17057 1.80938,-1.12879 4.26616,-1.12879 3.02117,0 5.01315,1.80938 2.00859,1.80938 2.14138,4.69776 h -2.90497 q -0.1328,-1.74299 -1.32799,-2.85518 -1.17859,-1.12879 -2.92157,-1.12879 -2.34058,0 -3.63537,1.69319 -1.27819,1.67658 -1.27819,4.86375 v 0.581 q 0,3.10417 1.27819,4.78076 1.27819,1.67658 3.65197,1.67658 z"
               style="font-family:Roboto;-inkscape-font-specification:Roboto;fill:#0df36e;fill-opacity:1"
               id="path846" />
            <path
               d="m 146.33671,207.58155 q 0,-2.63937 1.02919,-4.74755 1.04579,-2.10818 2.88838,-3.25357 1.85918,-1.14539 4.23296,-1.14539 3.66857,0 5.92615,2.53977 2.27418,2.53978 2.27418,6.75614 v 0.2158 q 0,2.62278 -1.01259,4.71436 -0.99599,2.07498 -2.87178,3.23697 -1.85918,1.16199 -4.28276,1.16199 -3.65197,0 -5.92615,-2.53978 -2.25758,-2.53977 -2.25758,-6.72294 z m 3.08758,0.3652 q 0,2.98797 1.37778,4.79736 1.39439,1.80938 3.71837,1.80938 2.34058,0 3.71837,-1.82598 1.37778,-1.84258 1.37778,-5.14596 0,-2.95477 -1.41098,-4.78075 -1.39439,-1.84259 -3.71837,-1.84259 -2.27418,0 -3.66857,1.80939 -1.39438,1.80938 -1.39438,5.17915 z"
               style="font-family:Roboto;-inkscape-font-specification:Roboto;fill:#0df36e;fill-opacity:1"
               id="path848" />
          </g>
          <g
             aria-label="parser combinator library"
             id="text962"
             style="font-size:12.7px;line-height:1.25;font-family:'Roboto Condensed';-inkscape-font-specification:'Roboto Condensed, ';letter-spacing:0px;word-spacing:0px;fill:#0df36e;fill-opacity:1;stroke-width:0.264583"
             transform="translate(4.7625001,-14.287499)">
            <path
               d="m 48.001203,208.36973 q 0,1.5937 -0.576709,2.37505 -0.570508,0.78134 -1.618506,0.78134 -1.010791,0 -1.556494,-0.76274 v 3.21841 h -1.091406 v -9.28936 h 0.992187 l 0.05581,0.74414 q 0.551904,-0.86816 1.581299,-0.86816 1.103808,0 1.649511,0.76894 0.545704,0.76895 0.564307,2.30064 z m -1.091406,-0.62632 q 0,-1.12862 -0.347266,-1.66192 -0.347265,-0.5395 -1.116211,-0.5395 -0.787549,0 -1.196826,0.78755 v 3.49126 q 0.403076,0.76895 1.209229,0.76895 0.74414,0 1.091406,-0.5333 0.353467,-0.53951 0.359668,-1.64332 z"
               id="path4473"
               style="fill:#0df36e;fill-opacity:1" />
            <path
               d="m 52.869123,211.4021 q -0.09922,-0.21704 -0.142627,-0.73174 -0.58291,0.85576 -1.488281,0.85576 -0.911572,0 -1.42627,-0.50849 -0.508496,-0.5147 -0.508496,-1.44488 0,-1.02319 0.694531,-1.6247 0.694532,-0.60152 1.90376,-0.61392 h 0.806153 V 206.621 q 0,-0.60152 -0.266651,-0.85577 -0.26665,-0.25424 -0.812353,-0.25424 -0.496094,0 -0.806153,0.29765 -0.310058,0.29146 -0.310058,0.74414 H 49.41507 q 0,-0.51469 0.303858,-0.97978 0.303857,-0.47129 0.818554,-0.73794 0.514698,-0.26665 1.147217,-0.26665 1.029395,0 1.562695,0.5147 0.539502,0.50849 0.551905,1.48828 v 3.38584 q 0.0062,0.77514 0.21084,1.34565 v 0.0992 z m -1.463477,-0.87437 q 0.403077,0 0.768946,-0.22324 0.365869,-0.22324 0.533301,-0.5581 v -1.59991 h -0.620118 q -0.781347,0.0124 -1.234033,0.35347 -0.452685,0.33486 -0.452685,0.94258 0,0.57051 0.229443,0.83096 0.229443,0.25424 0.775146,0.25424 z"
               id="path4475"
               style="fill:#0df36e;fill-opacity:1" />
            <path
               d="m 58.270343,205.72183 q -0.229443,-0.0434 -0.496093,-0.0434 -0.84336,0 -1.178223,0.92397 v 4.79971 H 55.49842 v -6.70967 h 1.066601 l 0.0186,0.68213 q 0.440283,-0.80615 1.246435,-0.80615 0.260449,0 0.434082,0.0868 z"
               id="path4477"
               style="fill:#0df36e;fill-opacity:1" />
            <path
               d="m 62.623567,209.68438 q 0,-0.35347 -0.266651,-0.60772 -0.26665,-0.25425 -1.029394,-0.59531 -0.886768,-0.36587 -1.252637,-0.62632 -0.359668,-0.26045 -0.539502,-0.58911 -0.179834,-0.33487 -0.179834,-0.79375 0,-0.81856 0.595313,-1.35806 0.601513,-0.5457 1.531689,-0.5457 0.979785,0 1.575098,0.57051 0.595312,0.5705 0.595312,1.46347 h -1.091406 q 0,-0.45268 -0.303857,-0.76894 -0.303858,-0.32246 -0.775147,-0.32246 -0.483691,0 -0.762744,0.25424 -0.272852,0.24805 -0.272852,0.66973 0,0.33486 0.198438,0.5395 0.204639,0.20464 0.973584,0.5395 1.221631,0.4775 1.661914,0.93638 0.440283,0.45269 0.440283,1.15342 0,0.87437 -0.601514,1.40146 -0.601513,0.5209 -1.612304,0.5209 -1.047998,0 -1.699121,-0.60151 -0.651123,-0.60151 -0.651123,-1.52549 h 1.103808 q 0.0186,0.55811 0.341065,0.87437 0.322461,0.31626 0.905371,0.31626 0.545703,0 0.830957,-0.24185 0.285254,-0.24805 0.285254,-0.66352 z"
               id="path4479"
               style="fill:#0df36e;fill-opacity:1" />
            <path
               d="m 67.547296,211.52612 q -1.252637,0 -1.922363,-0.74414 -0.669727,-0.75034 -0.682129,-2.19521 v -0.81236 q 0,-1.50068 0.651123,-2.35024 0.657324,-0.85576 1.829346,-0.85576 1.178222,0 1.761132,0.75034 0.582911,0.75034 0.595313,2.33784 v 0.71934 H 66.03421 v 0.15503 q 0,1.079 0.403076,1.56889 0.409278,0.4899 1.172022,0.4899 0.483691,0 0.84956,-0.17984 0.372071,-0.18603 0.694532,-0.58291 l 0.570507,0.69453 q -0.713134,1.00459 -2.176611,1.00459 z m -0.124023,-6.01513 q -0.682129,0 -1.010791,0.47129 -0.328662,0.46508 -0.372071,1.45107 h 2.6417 v -0.14883 q -0.04341,-0.95498 -0.347266,-1.36426 -0.297656,-0.40927 -0.911572,-0.40927 z"
               id="path4481"
               style="fill:#0df36e;fill-opacity:1" />
            <path
               d="m 73.866291,205.72183 q -0.229444,-0.0434 -0.496094,-0.0434 -0.843359,0 -1.178223,0.92397 v 4.79971 h -1.097607 v -6.70967 h 1.066601 l 0.0186,0.68213 q 0.440283,-0.80615 1.246435,-0.80615 0.26045,0 0.434082,0.0868 z"
               id="path4483"
               style="fill:#0df36e;fill-opacity:1" />
            <path
               d="m 80.197688,210.58975 q 0.545703,0 0.874365,-0.33487 0.328663,-0.34106 0.359668,-0.96738 h 1.035596 q -0.03721,0.96738 -0.68833,1.6061 -0.644922,0.63252 -1.581299,0.63252 -1.246435,0 -1.903759,-0.78134 -0.651124,-0.78755 -0.651124,-2.33785 v -0.73794 q 0,-1.51928 0.651124,-2.30683 0.651123,-0.79375 1.897558,-0.79375 1.029395,0 1.630908,0.65112 0.607715,0.65112 0.644922,1.77974 h -1.035596 q -0.03721,-0.74414 -0.359668,-1.11621 -0.316259,-0.37207 -0.880566,-0.37207 -0.731738,0 -1.085205,0.48369 -0.353467,0.47749 -0.365869,1.5751 v 0.85576 q 0,1.18442 0.347265,1.67431 0.353467,0.4899 1.11001,0.4899 z"
               id="path4485"
               style="fill:#0df36e;fill-opacity:1" />
            <path
               d="m 83.502911,207.73721 q 0,-1.46348 0.706933,-2.31304 0.713135,-0.85576 1.878955,-0.85576 1.165821,0 1.872754,0.83096 0.713135,0.83095 0.731738,2.26342 v 0.70694 q 0,1.45727 -0.706933,2.30683 -0.706934,0.84956 -1.885156,0.84956 -1.165821,0 -1.872754,-0.82475 -0.700733,-0.82476 -0.725537,-2.23242 z m 1.097607,0.63252 q 0,1.03559 0.403076,1.6309 0.409278,0.58912 1.097608,0.58912 1.451074,0 1.494482,-2.096 v -0.75654 q 0,-1.0294 -0.409277,-1.62471 -0.409278,-0.60151 -1.097608,-0.60151 -0.675927,0 -1.085205,0.60151 -0.403076,0.59531 -0.403076,1.61851 z"
               id="path4487"
               style="fill:#0df36e;fill-opacity:1" />
            <path
               d="m 91.142755,204.69243 0.02481,0.62012 q 0.613916,-0.74414 1.618506,-0.74414 1.122412,0 1.568896,0.97358 0.63252,-0.97358 1.761133,-0.97358 1.85415,0 1.897558,2.31304 v 4.52065 h -1.091406 v -4.41523 q 0,-0.73174 -0.260449,-1.08521 -0.260449,-0.35967 -0.880566,-0.35967 -0.496094,0 -0.806153,0.38447 -0.310058,0.38448 -0.359668,0.97979 v 4.49585 h -1.103808 v -4.46484 q -0.0186,-1.39527 -1.134815,-1.39527 -0.830957,0 -1.172021,0.83096 v 5.02915 h -1.091406 v -6.70967 z"
               id="path4489"
               style="fill:#0df36e;fill-opacity:1" />
            <path
               d="m 104.52489,208.36973 q 0,1.56889 -0.56431,2.36264 -0.56431,0.79375 -1.63711,0.79375 -1.0666,0 -1.5999,-0.91777 l -0.0558,0.79375 h -0.998392 v -9.525 h 1.091402 v 3.55327 q 0.53951,-0.86196 1.5503,-0.86196 1.10381,0 1.65571,0.78135 0.5519,0.78134 0.55811,2.35644 z m -1.09141,-0.62632 q 0,-1.19063 -0.33486,-1.69292 -0.32867,-0.5085 -1.07281,-0.5085 -0.84956,0 -1.26504,0.91778 v 3.1936 q 0.40928,0.90537 1.27745,0.90537 0.74414,0 1.0666,-0.5209 0.32246,-0.5209 0.32866,-1.6185 z"
               id="path4491"
               style="fill:#0df36e;fill-opacity:1" />
            <path
               d="m 107.11077,211.4021 h -1.0976 v -6.70967 h 1.0976 z m 0.0868,-8.4894 q 0,0.27905 -0.15503,0.46508 -0.15503,0.18604 -0.47129,0.18604 -0.31006,0 -0.46509,-0.18604 -0.15502,-0.18603 -0.15502,-0.46508 0,-0.27906 0.15502,-0.47129 0.15503,-0.19224 0.46509,-0.19224 0.31006,0 0.46509,0.19844 0.16123,0.19223 0.16123,0.46509 z"
               id="path4493"
               style="fill:#0df36e;fill-opacity:1" />
            <path
               d="m 109.8703,204.69243 0.031,0.72554 q 0.63872,-0.84956 1.63091,-0.84956 1.77974,0 1.80454,2.37505 v 4.45864 h -1.0914 v -4.40903 q 0,-0.78755 -0.26665,-1.11621 -0.26045,-0.33487 -0.78755,-0.33487 -0.40928,0 -0.73794,0.27285 -0.32246,0.27286 -0.5209,0.71314 v 4.87412 h -1.09761 v -6.70967 z"
               id="path4495"
               style="fill:#0df36e;fill-opacity:1" />
            <path
               d="m 118.43411,211.4021 q -0.0992,-0.21704 -0.14263,-0.73174 -0.58291,0.85576 -1.48828,0.85576 -0.91157,0 -1.42627,-0.50849 -0.50849,-0.5147 -0.50849,-1.44488 0,-1.02319 0.69453,-1.6247 0.69453,-0.60152 1.90376,-0.61392 h 0.80615 V 206.621 q 0,-0.60152 -0.26665,-0.85577 -0.26665,-0.25424 -0.81235,-0.25424 -0.4961,0 -0.80616,0.29765 -0.31006,0.29146 -0.31006,0.74414 h -1.0976 q 0,-0.51469 0.30385,-0.97978 0.30386,-0.47129 0.81856,-0.73794 0.5147,-0.26665 1.14722,-0.26665 1.02939,0 1.56269,0.5147 0.5395,0.50849 0.55191,1.48828 v 3.38584 q 0.006,0.77514 0.21084,1.34565 v 0.0992 z m -1.46348,-0.87437 q 0.40308,0 0.76895,-0.22324 0.36587,-0.22324 0.5333,-0.5581 v -1.59991 h -0.62012 q -0.78135,0.0124 -1.23403,0.35347 -0.45269,0.33486 -0.45269,0.94258 0,0.57051 0.22945,0.83096 0.22944,0.25424 0.77514,0.25424 z"
               id="path4497"
               style="fill:#0df36e;fill-opacity:1" />
            <path
               d="m 122.50208,203.06772 v 1.62471 h 1.01079 v 0.88677 h -1.01079 v 4.16099 q 0,0.39687 0.13023,0.60151 0.13022,0.20464 0.44648,0.20464 0.21704,0 0.44028,-0.0744 l -0.0124,0.93018 q -0.37207,0.12402 -0.76274,0.12402 -0.65113,0 -0.99219,-0.46508 -0.34107,-0.46509 -0.34107,-1.31465 v -4.16719 h -1.02319 v -0.88677 h 1.02319 v -1.62471 z"
               id="path4499"
               style="fill:#0df36e;fill-opacity:1" />
            <path
               d="m 124.46165,207.73721 q 0,-1.46348 0.70693,-2.31304 0.71314,-0.85576 1.87896,-0.85576 1.16582,0 1.87275,0.83096 0.71314,0.83095 0.73174,2.26342 v 0.70694 q 0,1.45727 -0.70693,2.30683 -0.70694,0.84956 -1.88516,0.84956 -1.16582,0 -1.87275,-0.82475 -0.70073,-0.82476 -0.72554,-2.23242 z m 1.09761,0.63252 q 0,1.03559 0.40307,1.6309 0.40928,0.58912 1.09761,0.58912 1.45108,0 1.49448,-2.096 v -0.75654 q 0,-1.0294 -0.40927,-1.62471 -0.40928,-0.60151 -1.09761,-0.60151 -0.67593,0 -1.08521,0.60151 -0.40307,0.59531 -0.40307,1.61851 z"
               id="path4501"
               style="fill:#0df36e;fill-opacity:1" />
            <path
               d="m 133.83783,205.72183 q -0.22945,-0.0434 -0.4961,-0.0434 -0.84336,0 -1.17822,0.92397 v 4.79971 h -1.09761 v -6.70967 h 1.06661 l 0.0186,0.68213 q 0.44028,-0.80615 1.24643,-0.80615 0.26045,0 0.43409,0.0868 z"
               id="path4503"
               style="fill:#0df36e;fill-opacity:1" />
            <path
               d="m 139.022,211.4021 h -1.09761 v -9.525 h 1.09761 z"
               id="path4505"
               style="fill:#0df36e;fill-opacity:1" />
            <path
               d="m 141.93035,211.4021 h -1.09761 v -6.70967 h 1.09761 z m 0.0868,-8.4894 q 0,0.27905 -0.15503,0.46508 -0.15503,0.18604 -0.47129,0.18604 -0.31006,0 -0.46509,-0.18604 -0.15503,-0.18603 -0.15503,-0.46508 0,-0.27906 0.15503,-0.47129 0.15503,-0.19224 0.46509,-0.19224 0.31006,0 0.46509,0.19844 0.16123,0.19223 0.16123,0.46509 z"
               id="path4507"
               style="fill:#0df36e;fill-opacity:1" />
            <path
               d="m 148.51599,208.36973 q 0,1.56889 -0.5643,2.36264 -0.56431,0.79375 -1.63711,0.79375 -1.0666,0 -1.5999,-0.91777 l -0.0558,0.79375 h -0.99838 v -9.525 h 1.0914 v 3.55327 q 0.5395,-0.86196 1.5503,-0.86196 1.1038,0 1.65571,0.78135 0.5519,0.78134 0.5581,2.35644 z m -1.0914,-0.62632 q 0,-1.19063 -0.33487,-1.69292 -0.32866,-0.5085 -1.0728,-0.5085 -0.84956,0 -1.26504,0.91778 v 3.1936 q 0.40928,0.90537 1.27744,0.90537 0.74414,0 1.06661,-0.5209 0.32246,-0.5209 0.32866,-1.6185 z"
               id="path4509"
               style="fill:#0df36e;fill-opacity:1" />
            <path
               d="m 152.68938,205.72183 q -0.22944,-0.0434 -0.49609,-0.0434 -0.84336,0 -1.17822,0.92397 v 4.79971 h -1.09761 v -6.70967 h 1.0666 l 0.0186,0.68213 q 0.44029,-0.80615 1.24644,-0.80615 0.26045,0 0.43408,0.0868 z"
               id="path4511"
               style="fill:#0df36e;fill-opacity:1" />
            <path
               d="m 156.9868,211.4021 q -0.0992,-0.21704 -0.14263,-0.73174 -0.58291,0.85576 -1.48828,0.85576 -0.91157,0 -1.42627,-0.50849 -0.50849,-0.5147 -0.50849,-1.44488 0,-1.02319 0.69453,-1.6247 0.69453,-0.60152 1.90376,-0.61392 h 0.80615 V 206.621 q 0,-0.60152 -0.26665,-0.85577 -0.26665,-0.25424 -0.81236,-0.25424 -0.49609,0 -0.80615,0.29765 -0.31006,0.29146 -0.31006,0.74414 h -1.0976 q 0,-0.51469 0.30385,-0.97978 0.30386,-0.47129 0.81856,-0.73794 0.5147,-0.26665 1.14721,-0.26665 1.0294,0 1.5627,0.5147 0.5395,0.50849 0.5519,1.48828 v 3.38584 q 0.006,0.77514 0.21084,1.34565 v 0.0992 z m -1.46348,-0.87437 q 0.40308,0 0.76895,-0.22324 0.36587,-0.22324 0.5333,-0.5581 v -1.59991 h -0.62012 q -0.78135,0.0124 -1.23403,0.35347 -0.45269,0.33486 -0.45269,0.94258 0,0.57051 0.22945,0.83096 0.22944,0.25424 0.77514,0.25424 z"
               id="path4513"
               style="fill:#0df36e;fill-opacity:1" />
            <path
               d="m 162.38802,205.72183 q -0.22944,-0.0434 -0.49609,-0.0434 -0.84336,0 -1.17823,0.92397 v 4.79971 h -1.0976 v -6.70967 h 1.0666 l 0.0186,0.68213 q 0.44029,-0.80615 1.24644,-0.80615 0.26045,0 0.43408,0.0868 z"
               id="path4515"
               style="fill:#0df36e;fill-opacity:1" />
            <path
               d="m 165.42659,209.57896 1.22163,-4.88653 h 1.16582 l -2.19521,7.65845 q -0.24805,0.86196 -0.70074,1.30845 -0.45268,0.45268 -1.02939,0.45268 -0.22324,0 -0.57051,-0.0992 v -0.93017 l 0.24185,0.0248 q 0.47749,0 0.74414,-0.22944 0.27285,-0.22324 0.44028,-0.78135 l 0.21704,-0.75034 -1.97197,-6.65386 h 1.19682 z"
               id="path4517"
               style="fill:#0df36e;fill-opacity:1" />
          </g>
        </g>
      </g>
    </g>
  </g>
</svg>
